<mxfile host="Electron" agent="Mozilla/5.0 (Windows NT 10.0; Win64; x64) AppleWebKit/537.36 (KHTML, like Gecko) draw.io/27.0.2 Chrome/134.0.6998.205 Electron/35.3.0 Safari/537.36" version="27.0.2">
  <diagram name="Página-1" id="Pqih__7b0O05FyZ2u5VV">
    <mxGraphModel dx="3273" dy="2635" grid="1" gridSize="10" guides="1" tooltips="1" connect="1" arrows="1" fold="1" page="1" pageScale="1" pageWidth="827" pageHeight="1169" math="0" shadow="0">
      <root>
        <mxCell id="0" />
        <mxCell id="1" parent="0" />
        <mxCell id="TX3onEPO9yVp4zeH3xRl-7" value="" style="rounded=1;whiteSpace=wrap;html=1;fillColor=#dae8fc;strokeColor=#6c8ebf;gradientColor=#7ea6e0;" vertex="1" parent="1">
          <mxGeometry x="-413" y="-0.399999999999995" width="310" height="345.4" as="geometry" />
        </mxCell>
        <mxCell id="Zybm6XqCpWypI8we6p3C-41" style="edgeStyle=none;shape=connector;rounded=0;orthogonalLoop=1;jettySize=auto;html=1;strokeColor=default;align=center;verticalAlign=middle;fontFamily=Helvetica;fontSize=11;fontColor=default;labelBackgroundColor=default;startFill=0;endArrow=none;" parent="1" source="Zybm6XqCpWypI8we6p3C-38" target="Zybm6XqCpWypI8we6p3C-6" edge="1">
          <mxGeometry relative="1" as="geometry" />
        </mxCell>
        <mxCell id="Zybm6XqCpWypI8we6p3C-38" value="WAN" style="ellipse;shape=cloud;whiteSpace=wrap;html=1;fontFamily=Helvetica;fontSize=11;fontColor=default;labelBackgroundColor=default;" parent="1" vertex="1">
          <mxGeometry x="105.01" y="-10.6" width="120" height="80" as="geometry" />
        </mxCell>
        <mxCell id="Zybm6XqCpWypI8we6p3C-13" style="edgeStyle=none;shape=connector;rounded=0;orthogonalLoop=1;jettySize=auto;html=1;strokeColor=default;align=center;verticalAlign=middle;fontFamily=Helvetica;fontSize=11;fontColor=default;labelBackgroundColor=default;startFill=0;endArrow=none;" parent="1" source="Zybm6XqCpWypI8we6p3C-5" target="1NkxxKSasbxXzvWRkInH-5" edge="1">
          <mxGeometry relative="1" as="geometry">
            <mxPoint x="655" y="190.85480260964823" as="targetPoint" />
          </mxGeometry>
        </mxCell>
        <mxCell id="Zybm6XqCpWypI8we6p3C-39" style="edgeStyle=none;shape=connector;rounded=0;orthogonalLoop=1;jettySize=auto;html=1;strokeColor=default;align=center;verticalAlign=middle;fontFamily=Helvetica;fontSize=11;fontColor=default;labelBackgroundColor=default;startFill=0;endArrow=none;" parent="1" source="TX3onEPO9yVp4zeH3xRl-1" target="Zybm6XqCpWypI8we6p3C-38" edge="1">
          <mxGeometry relative="1" as="geometry" />
        </mxCell>
        <mxCell id="k9nC3tuPw0mamGYCM7r8-75" style="edgeStyle=none;shape=connector;rounded=0;orthogonalLoop=1;jettySize=auto;html=1;strokeColor=default;align=center;verticalAlign=middle;fontFamily=Helvetica;fontSize=11;fontColor=default;labelBackgroundColor=default;startFill=0;endArrow=none;" parent="1" source="Zybm6XqCpWypI8we6p3C-5" target="Zybm6XqCpWypI8we6p3C-31" edge="1">
          <mxGeometry relative="1" as="geometry" />
        </mxCell>
        <mxCell id="Zybm6XqCpWypI8we6p3C-5" value="" style="image;html=1;image=img/lib/clip_art/networking/Router_128x128.png" parent="1" vertex="1">
          <mxGeometry x="465.01" y="28" width="80" height="80" as="geometry" />
        </mxCell>
        <mxCell id="Zybm6XqCpWypI8we6p3C-6" value="" style="image;html=1;image=img/lib/clip_art/networking/Router_128x128.png" parent="1" vertex="1">
          <mxGeometry x="-303" y="32.4" width="80" height="80" as="geometry" />
        </mxCell>
        <mxCell id="Zybm6XqCpWypI8we6p3C-34" style="edgeStyle=none;shape=connector;rounded=0;orthogonalLoop=1;jettySize=auto;html=1;strokeColor=default;align=center;verticalAlign=middle;fontFamily=Helvetica;fontSize=11;fontColor=default;labelBackgroundColor=default;startFill=0;endArrow=none;" parent="1" source="1NkxxKSasbxXzvWRkInH-9" target="Zybm6XqCpWypI8we6p3C-33" edge="1">
          <mxGeometry relative="1" as="geometry" />
        </mxCell>
        <mxCell id="Zybm6XqCpWypI8we6p3C-31" value="LAN" style="rounded=1;whiteSpace=wrap;html=1;" parent="1" vertex="1">
          <mxGeometry x="285.01" y="176.54000000000002" width="110" height="70" as="geometry" />
        </mxCell>
        <mxCell id="Zybm6XqCpWypI8we6p3C-33" value="" style="shape=mxgraph.networks2.icon;aspect=fixed;fillColor=#EDEDED;strokeColor=#000000;gradientColor=#5B6163;network2IconShadow=1;network2bgFillColor=none;network2Icon=mxgraph.networks2.pc;network2IconYOffset=-0.0593;network2IconW=0.9999;network2IconH=0.7096;fontFamily=Helvetica;fontSize=11;fontColor=default;labelBackgroundColor=default;" parent="1" vertex="1">
          <mxGeometry x="-287.99" y="265.26" width="49.995" height="35.480000000000004" as="geometry" />
        </mxCell>
        <mxCell id="Zybm6XqCpWypI8we6p3C-36" value="Gateway vpn" style="text;html=1;align=center;verticalAlign=middle;resizable=0;points=[];autosize=1;strokeColor=none;fillColor=none;fontFamily=Helvetica;fontSize=11;fontColor=default;labelBackgroundColor=default;" parent="1" vertex="1">
          <mxGeometry x="-223" y="280" width="90" height="30" as="geometry" />
        </mxCell>
        <mxCell id="Zybm6XqCpWypI8we6p3C-37" value="INTERFACE WAN" style="text;html=1;align=center;verticalAlign=middle;resizable=0;points=[];autosize=1;strokeColor=none;fillColor=none;fontFamily=Helvetica;fontSize=11;fontColor=default;labelBackgroundColor=default;" parent="1" vertex="1">
          <mxGeometry x="115.01" y="-43.6" width="110" height="30" as="geometry" />
        </mxCell>
        <mxCell id="Zybm6XqCpWypI8we6p3C-40" value="tcp 1994&lt;div&gt;DSP 500&lt;/div&gt;&lt;div&gt;P_cienss&lt;/div&gt;" style="text;html=1;align=center;verticalAlign=middle;resizable=0;points=[];autosize=1;strokeColor=none;fillColor=none;fontFamily=Helvetica;fontSize=11;fontColor=default;labelBackgroundColor=default;" parent="1" vertex="1">
          <mxGeometry x="130.01" y="62.4" width="70" height="50" as="geometry" />
        </mxCell>
        <mxCell id="Zybm6XqCpWypI8we6p3C-43" value="OpenVPN Client&lt;div&gt;IP DST - IP Publica - Servidorf&lt;/div&gt;" style="text;html=1;align=center;verticalAlign=middle;resizable=0;points=[];autosize=1;strokeColor=none;fillColor=none;fontFamily=Helvetica;fontSize=11;fontColor=default;labelBackgroundColor=default;" parent="1" vertex="1">
          <mxGeometry x="-350" y="220.00000000000003" width="170" height="40" as="geometry" />
        </mxCell>
        <mxCell id="1NkxxKSasbxXzvWRkInH-5" value="DNS" style="whiteSpace=wrap;html=1;" parent="1" vertex="1">
          <mxGeometry x="580" y="129.34000000000003" width="80" height="30" as="geometry" />
        </mxCell>
        <mxCell id="TX3onEPO9yVp4zeH3xRl-10" style="rounded=0;orthogonalLoop=1;jettySize=auto;html=1;endArrow=none;startFill=0;" edge="1" parent="1" source="1NkxxKSasbxXzvWRkInH-9" target="Zybm6XqCpWypI8we6p3C-6">
          <mxGeometry relative="1" as="geometry" />
        </mxCell>
        <mxCell id="1NkxxKSasbxXzvWRkInH-9" value="" style="shape=mxgraph.networks2.icon;aspect=fixed;fillColor=#EDEDED;strokeColor=#000000;gradientColor=#5B6163;network2IconShadow=1;network2bgFillColor=none;network2Icon=mxgraph.networks2.firewall;network2IconXOffset=0.0001;network2IconYOffset=0.0001;network2IconW=1;network2IconH=0.608;" parent="1" vertex="1">
          <mxGeometry x="-289.64" y="159.34000000000003" width="53.29" height="32.4" as="geometry" />
        </mxCell>
        <mxCell id="1NkxxKSasbxXzvWRkInH-17" value="" style="edgeStyle=none;shape=connector;rounded=0;orthogonalLoop=1;jettySize=auto;html=1;strokeColor=default;align=center;verticalAlign=middle;fontFamily=Helvetica;fontSize=11;fontColor=default;labelBackgroundColor=default;startFill=0;endArrow=none;" parent="1" source="Zybm6XqCpWypI8we6p3C-5" target="1NkxxKSasbxXzvWRkInH-12" edge="1">
          <mxGeometry relative="1" as="geometry">
            <mxPoint x="545" y="64" as="sourcePoint" />
            <mxPoint x="1270" y="-15" as="targetPoint" />
          </mxGeometry>
        </mxCell>
        <mxCell id="1NkxxKSasbxXzvWRkInH-12" value="" style="shape=mxgraph.networks2.icon;aspect=fixed;fillColor=#EDEDED;strokeColor=#000000;gradientColor=#5B6163;network2IconShadow=1;network2bgFillColor=none;network2Icon=mxgraph.networks2.firewall;network2IconXOffset=0.0001;network2IconYOffset=0.0001;network2IconW=1;network2IconH=0.608;" parent="1" vertex="1">
          <mxGeometry x="690" y="54.8" width="50" height="30.4" as="geometry" />
        </mxCell>
        <mxCell id="k9nC3tuPw0mamGYCM7r8-1" value="" style="rounded=0;whiteSpace=wrap;html=1;fillColor=#6d8764;strokeColor=#3A5431;fontColor=#ffffff;" parent="1" vertex="1">
          <mxGeometry x="-233" y="490" width="1477.25" height="940" as="geometry" />
        </mxCell>
        <mxCell id="k9nC3tuPw0mamGYCM7r8-2" value="cc" style="rounded=0;whiteSpace=wrap;html=1;fillColor=#647687;strokeColor=#314354;fontColor=#ffffff;" parent="1" vertex="1">
          <mxGeometry x="-193" y="537.5" width="1210" height="842.5" as="geometry" />
        </mxCell>
        <mxCell id="k9nC3tuPw0mamGYCM7r8-3" style="edgeStyle=orthogonalEdgeStyle;rounded=0;orthogonalLoop=1;jettySize=auto;html=1;fillColor=#f8cecc;strokeColor=#000000;startArrow=none;startFill=0;strokeWidth=1;endArrow=none;" parent="1" source="k9nC3tuPw0mamGYCM7r8-4" target="k9nC3tuPw0mamGYCM7r8-13" edge="1">
          <mxGeometry relative="1" as="geometry" />
        </mxCell>
        <mxCell id="k9nC3tuPw0mamGYCM7r8-4" value="Servidor Físico.&lt;div&gt;&lt;div style=&quot;text-wrap-mode: wrap; background-color: rgb(236, 236, 236);&quot;&gt;SO: Ubuntu Server 22.04&lt;/div&gt;&lt;div style=&quot;text-wrap-mode: wrap; background-color: rgb(236, 236, 236);&quot;&gt;&lt;span style=&quot;background-color: transparent; color: light-dark(rgb(0, 0, 0), rgb(255, 255, 255));&quot;&gt;HOST: Servidor&lt;/span&gt;&lt;/div&gt;&lt;/div&gt;&lt;div&gt;&lt;br&gt;&lt;/div&gt;" style="image;aspect=fixed;perimeter=ellipsePerimeter;html=1;align=center;shadow=0;dashed=0;spacingTop=3;image=img/lib/active_directory/database_server.svg;" parent="1" vertex="1">
          <mxGeometry x="762" y="661" width="82" height="100" as="geometry" />
        </mxCell>
        <mxCell id="k9nC3tuPw0mamGYCM7r8-5" value="&lt;font style=&quot;font-size: 24px;&quot;&gt;VLAN_DMZ&lt;/font&gt;" style="text;html=1;align=center;verticalAlign=middle;resizable=0;points=[];autosize=1;strokeColor=none;fillColor=none;" parent="1" vertex="1">
          <mxGeometry x="1077" y="550" width="150" height="40" as="geometry" />
        </mxCell>
        <mxCell id="k9nC3tuPw0mamGYCM7r8-6" value="&lt;div&gt;Contenedor&lt;/div&gt;Servidor Web&lt;div&gt;&lt;div&gt;servidor1proyecto&lt;/div&gt;&lt;/div&gt;" style="rounded=1;whiteSpace=wrap;html=1;fillColor=#f8cecc;strokeColor=#b85450;" parent="1" vertex="1">
          <mxGeometry x="125.32999999999993" y="771" width="170" height="69" as="geometry" />
        </mxCell>
        <mxCell id="k9nC3tuPw0mamGYCM7r8-7" value="" style="sketch=0;aspect=fixed;pointerEvents=1;shadow=0;dashed=0;html=1;strokeColor=none;labelPosition=center;verticalLabelPosition=bottom;verticalAlign=top;align=center;fillColor=#161515;shape=mxgraph.azure.virtual_machine_feature;fontColor=#ffffff;" parent="1" vertex="1">
          <mxGeometry x="127" y="611" width="166.67" height="150" as="geometry" />
        </mxCell>
        <mxCell id="k9nC3tuPw0mamGYCM7r8-8" value="" style="sketch=0;aspect=fixed;pointerEvents=1;shadow=0;dashed=0;html=1;strokeColor=none;labelPosition=center;verticalLabelPosition=bottom;verticalAlign=top;align=center;fillColor=#161515;shape=mxgraph.azure.virtual_machine_feature;fontColor=#ffffff;" parent="1" vertex="1">
          <mxGeometry x="407" y="1110" width="166.67" height="150" as="geometry" />
        </mxCell>
        <mxCell id="k9nC3tuPw0mamGYCM7r8-9" value="" style="sketch=0;aspect=fixed;pointerEvents=1;shadow=0;dashed=0;html=1;strokeColor=none;labelPosition=center;verticalLabelPosition=bottom;verticalAlign=top;align=center;fillColor=#161515;shape=mxgraph.azure.virtual_machine_feature;fontColor=#ffffff;" parent="1" vertex="1">
          <mxGeometry x="126.99999999999977" y="1110" width="166.67" height="150" as="geometry" />
        </mxCell>
        <mxCell id="k9nC3tuPw0mamGYCM7r8-10" value="&lt;div&gt;Contenedor&lt;/div&gt;&lt;div&gt;Servidor de BD&lt;/div&gt;&lt;div&gt;puerto: 3306&lt;/div&gt;" style="rounded=1;whiteSpace=wrap;html=1;fillColor=#fff2cc;strokeColor=#d6b656;" parent="1" vertex="1">
          <mxGeometry x="407" y="1270" width="170" height="90" as="geometry" />
        </mxCell>
        <mxCell id="k9nC3tuPw0mamGYCM7r8-11" value="&lt;div&gt;Contenedor freeipa&lt;/div&gt;&lt;div&gt;puertos: 143, 145&lt;/div&gt;&lt;div&gt;&lt;br&gt;&lt;/div&gt;" style="rounded=1;whiteSpace=wrap;html=1;fillColor=#f8cecc;strokeColor=#b85450;" parent="1" vertex="1">
          <mxGeometry x="123.66999999999985" y="1270" width="164.42" height="100" as="geometry" />
        </mxCell>
        <mxCell id="k9nC3tuPw0mamGYCM7r8-12" style="edgeStyle=orthogonalEdgeStyle;rounded=0;orthogonalLoop=1;jettySize=auto;html=1;endArrow=none;startFill=0;" parent="1" source="k9nC3tuPw0mamGYCM7r8-13" target="k9nC3tuPw0mamGYCM7r8-8" edge="1">
          <mxGeometry relative="1" as="geometry" />
        </mxCell>
        <mxCell id="k9nC3tuPw0mamGYCM7r8-53" style="rounded=0;orthogonalLoop=1;jettySize=auto;html=1;endArrow=none;startFill=0;" parent="1" source="k9nC3tuPw0mamGYCM7r8-13" target="k9nC3tuPw0mamGYCM7r8-50" edge="1">
          <mxGeometry relative="1" as="geometry" />
        </mxCell>
        <mxCell id="k9nC3tuPw0mamGYCM7r8-13" value="&lt;div&gt;&lt;span style=&quot;background-color: transparent; color: light-dark(rgb(0, 0, 0), rgb(255, 255, 255));&quot;&gt;Conmutador virtual&lt;/span&gt;&lt;/div&gt;&lt;div&gt;&lt;span style=&quot;background-color: transparent; color: light-dark(rgb(0, 0, 0), rgb(255, 255, 255));&quot;&gt;Bridge Ethernet.&lt;/span&gt;&lt;/div&gt;&lt;div&gt;&lt;span style=&quot;background-color: transparent; color: light-dark(rgb(0, 0, 0), rgb(255, 255, 255));&quot;&gt;AQUI SE COMUNICAN LOS CONTENEDORES DOCKER Y EL HOST&lt;/span&gt;&lt;/div&gt;" style="whiteSpace=wrap;html=1;" parent="1" vertex="1">
          <mxGeometry x="483.75" y="717.5" width="170" height="81" as="geometry" />
        </mxCell>
        <mxCell id="k9nC3tuPw0mamGYCM7r8-14" style="edgeStyle=orthogonalEdgeStyle;rounded=0;orthogonalLoop=1;jettySize=auto;html=1;entryX=1.011;entryY=0.598;entryDx=0;entryDy=0;entryPerimeter=0;endArrow=none;startFill=0;" parent="1" source="k9nC3tuPw0mamGYCM7r8-13" target="k9nC3tuPw0mamGYCM7r8-7" edge="1">
          <mxGeometry relative="1" as="geometry" />
        </mxCell>
        <mxCell id="k9nC3tuPw0mamGYCM7r8-15" style="rounded=0;orthogonalLoop=1;jettySize=auto;html=1;entryX=0.945;entryY=0.012;entryDx=0;entryDy=0;entryPerimeter=0;endArrow=none;startFill=0;" parent="1" source="k9nC3tuPw0mamGYCM7r8-13" target="k9nC3tuPw0mamGYCM7r8-9" edge="1">
          <mxGeometry relative="1" as="geometry" />
        </mxCell>
        <mxCell id="k9nC3tuPw0mamGYCM7r8-16" value="Adaptador de red virtual" style="whiteSpace=wrap;html=1;" parent="1" vertex="1">
          <mxGeometry x="507" y="1080" width="170" height="20" as="geometry" />
        </mxCell>
        <mxCell id="k9nC3tuPw0mamGYCM7r8-17" value="Adaptador de red virtual" style="whiteSpace=wrap;html=1;" parent="1" vertex="1">
          <mxGeometry x="172" y="993.5" width="170" height="20" as="geometry" />
        </mxCell>
        <mxCell id="k9nC3tuPw0mamGYCM7r8-18" value="Adaptador de red virtual 1" style="whiteSpace=wrap;html=1;" parent="1" vertex="1">
          <mxGeometry x="312.24" y="623.5" width="170" height="20" as="geometry" />
        </mxCell>
        <mxCell id="k9nC3tuPw0mamGYCM7r8-19" value="" style="verticalAlign=top;verticalLabelPosition=bottom;labelPosition=center;align=center;html=1;outlineConnect=0;gradientDirection=north;strokeWidth=2;shape=mxgraph.networks.firewall;fillColor=#f5f5f5;fontColor=#333333;strokeColor=#666666;" parent="1" vertex="1">
          <mxGeometry x="340.24" y="743.5" width="60" height="55" as="geometry" />
        </mxCell>
        <mxCell id="k9nC3tuPw0mamGYCM7r8-20" value="" style="verticalAlign=top;verticalLabelPosition=bottom;labelPosition=center;align=center;html=1;outlineConnect=0;gradientDirection=north;strokeWidth=2;shape=mxgraph.networks.firewall;fillColor=#f5f5f5;fontColor=#333333;strokeColor=#666666;" parent="1" vertex="1">
          <mxGeometry x="390.24" y="836" width="60" height="55" as="geometry" />
        </mxCell>
        <mxCell id="k9nC3tuPw0mamGYCM7r8-21" value="" style="verticalAlign=top;verticalLabelPosition=bottom;labelPosition=center;align=center;html=1;outlineConnect=0;gradientDirection=north;strokeWidth=2;shape=mxgraph.networks.firewall;fillColor=#f5f5f5;fontColor=#333333;strokeColor=#666666;" parent="1" vertex="1">
          <mxGeometry x="502" y="818.5" width="60" height="55" as="geometry" />
        </mxCell>
        <mxCell id="k9nC3tuPw0mamGYCM7r8-22" value="&lt;div&gt;&lt;div&gt;&lt;div&gt;&lt;b&gt;&lt;u&gt;Reglas de firewall del&amp;nbsp;&lt;span style=&quot;background-color: transparent; color: light-dark(rgb(0, 0, 0), rgb(255, 255, 255));&quot;&gt;Servidor de BD&lt;/span&gt;&lt;/u&gt;&lt;/b&gt;&lt;b style=&quot;background-color: transparent; color: light-dark(rgb(0, 0, 0), rgb(255, 255, 255));&quot;&gt;&lt;/b&gt;&lt;/div&gt;&lt;div&gt;&lt;b style=&quot;background-color: transparent; color: light-dark(rgb(0, 0, 0), rgb(255, 255, 255));&quot;&gt;&amp;nbsp;Bloquear acceso a MySQL desde LAN/WAN/WLAN Privado/WLAN Invitado&lt;/b&gt;&lt;/div&gt;&lt;/div&gt;&lt;/div&gt;&lt;div&gt;Acción: Block&lt;/div&gt;&lt;div&gt;Protocolo: TCP&lt;/div&gt;&lt;div&gt;Origen: Any (excepto el servidor web en DMZ)&lt;/div&gt;&lt;div&gt;Destino:&amp;nbsp;&lt;span style=&quot;background-color: transparent; color: light-dark(rgb(0, 0, 0), rgb(255, 255, 255));&quot;&gt;192.168.20.4/24&lt;/span&gt;&lt;/div&gt;&lt;div&gt;Puerto destino: 3306&lt;/div&gt;&lt;div&gt;&lt;br&gt;&lt;/div&gt;&lt;div&gt;&lt;div&gt;Reglas en el servidor MySQL&lt;/div&gt;&lt;div&gt;&lt;b&gt;&amp;nbsp;Permitir tráfico entrante desde el servidor web (acceso a MySQL)&lt;/b&gt;&lt;/div&gt;&lt;div&gt;Acción: Allow&lt;/div&gt;&lt;div&gt;Protocolo: TCP&lt;/div&gt;&lt;div&gt;Puerto destino: 3306 (MySQL)&lt;/div&gt;&lt;div&gt;Origen:&amp;nbsp;&lt;span style=&quot;background-color: transparent; color: light-dark(rgb(0, 0, 0), rgb(255, 255, 255));&quot;&gt;192.168.20.5/24&lt;/span&gt;&lt;/div&gt;&lt;div&gt;Destino:&amp;nbsp;&lt;span style=&quot;background-color: transparent; color: light-dark(rgb(0, 0, 0), rgb(255, 255, 255));&quot;&gt;192.168.20.4/24&lt;/span&gt;&lt;/div&gt;&lt;div&gt;&lt;b&gt;&amp;nbsp;Permitir tráfico saliente hacia el servidor web&lt;/b&gt;&lt;/div&gt;&lt;div&gt;Acción: Allow&lt;/div&gt;&lt;div&gt;Protocolo: TCP&lt;/div&gt;&lt;div&gt;Puerto destino: 80 (HTTP), 443 (HTTPS)&lt;/div&gt;&lt;div&gt;Origen:&amp;nbsp;&lt;span style=&quot;background-color: transparent; color: light-dark(rgb(0, 0, 0), rgb(255, 255, 255));&quot;&gt;192.168.20.4/24&lt;/span&gt;&lt;/div&gt;&lt;div&gt;Destino: 192.168.20.5/24&lt;/div&gt;&lt;/div&gt;" style="rounded=0;whiteSpace=wrap;html=1;fillColor=#d5e8d4;strokeColor=#82b366;" parent="1" vertex="1">
          <mxGeometry x="604.7699999999998" y="1270" width="228.23" height="440" as="geometry" />
        </mxCell>
        <mxCell id="k9nC3tuPw0mamGYCM7r8-23" value="&lt;div&gt;&lt;div&gt;&lt;b&gt;&lt;u&gt;Reglas de firewall del Servidor Web&lt;/u&gt;&lt;/b&gt;&lt;/div&gt;&lt;div&gt;&lt;b style=&quot;background-color: transparent; color: light-dark(rgb(0, 0, 0), rgb(255, 255, 255));&quot;&gt;Permitir acceso desde la LAN al servidor web en la DMZ&lt;/b&gt;&lt;/div&gt;&lt;div&gt;Acción: Pasar&lt;/div&gt;&lt;div&gt;Protocolo: TCP&lt;/div&gt;&lt;div&gt;Origen: LAN subnet&lt;/div&gt;&lt;div&gt;Destino: 192.168.20.5&lt;/div&gt;&lt;div&gt;Puerto destino: 80 (HTTP) y 443 (HTTPS)&lt;/div&gt;&lt;/div&gt;&lt;div&gt;&lt;br&gt;&lt;/div&gt;&lt;div&gt;&lt;div&gt;&lt;span style=&quot;background-color: transparent; color: light-dark(rgb(0, 0, 0), rgb(255, 255, 255));&quot;&gt;&lt;b&gt;Permitir tráfico entrante desde el servidor MySQL&lt;/b&gt;&lt;/span&gt;&lt;/div&gt;&lt;div&gt;Acción: Allow&lt;/div&gt;&lt;div&gt;Protocolo: TCP&lt;/div&gt;&lt;div&gt;Puerto destino: 80 (HTTP), 443 (HTTPS)&lt;/div&gt;&lt;div&gt;Origen:&amp;nbsp;&lt;span style=&quot;background-color: transparent; color: light-dark(rgb(0, 0, 0), rgb(255, 255, 255));&quot;&gt;192.168.20.4/24&lt;/span&gt;&lt;/div&gt;&lt;div&gt;Destino:&amp;nbsp;&lt;span style=&quot;background-color: transparent; color: light-dark(rgb(0, 0, 0), rgb(255, 255, 255));&quot;&gt;192.168.20.5/24&lt;/span&gt;&lt;/div&gt;&lt;div&gt;&lt;br&gt;&lt;/div&gt;&lt;div&gt;&lt;b&gt;&amp;nbsp;Permitir tráfico saliente hacia el servidor MySQL (conexión a la base de datos)&lt;/b&gt;&lt;/div&gt;&lt;div&gt;Acción: Allow&lt;/div&gt;&lt;div&gt;Protocolo: TCP&lt;/div&gt;&lt;div&gt;Puerto destino: 3306 (MySQL)&lt;/div&gt;&lt;div&gt;Origen:&amp;nbsp;&lt;span style=&quot;background-color: transparent; color: light-dark(rgb(0, 0, 0), rgb(255, 255, 255));&quot;&gt;192.168.20.5/24&lt;/span&gt;&lt;/div&gt;&lt;div&gt;Destino:&amp;nbsp;&lt;span style=&quot;background-color: transparent; color: light-dark(rgb(0, 0, 0), rgb(255, 255, 255));&quot;&gt;192.168.20.4/24&lt;/span&gt;&lt;/div&gt;&lt;/div&gt;&lt;div&gt;&lt;br&gt;&lt;/div&gt;" style="whiteSpace=wrap;html=1;fillColor=#d5e8d4;strokeColor=#82b366;" parent="1" vertex="1">
          <mxGeometry x="-113" y="591" width="210" height="430" as="geometry" />
        </mxCell>
        <mxCell id="k9nC3tuPw0mamGYCM7r8-25" value="&lt;div style=&quot;background-color: rgb(236, 236, 236);&quot;&gt;&lt;div style=&quot;background-color: rgb(236, 236, 236);&quot;&gt;IP: 192.168.20.5/24&lt;/div&gt;&lt;div style=&quot;background-color: rgb(236, 236, 236);&quot;&gt;&lt;span style=&quot;background-color: transparent; color: light-dark(rgb(0, 0, 0), rgb(255, 255, 255));&quot;&gt;MAC&lt;/span&gt;&lt;span style=&quot;background-color: transparent; color: light-dark(rgb(0, 0, 0), rgb(255, 255, 255));&quot;&gt;:&amp;nbsp;b2:88:dc:3b:b7:6e&lt;/span&gt;&lt;/div&gt;&lt;/div&gt;" style="whiteSpace=wrap;html=1;" parent="1" vertex="1">
          <mxGeometry x="312.24" y="681" width="137.51" height="52.5" as="geometry" />
        </mxCell>
        <mxCell id="k9nC3tuPw0mamGYCM7r8-26" value="&lt;div&gt;IP: 192.168.20.6/24&lt;/div&gt;&lt;div&gt;&lt;span style=&quot;background-color: transparent; color: light-dark(rgb(0, 0, 0), rgb(255, 255, 255));&quot;&gt;MAC:&amp;nbsp;&lt;/span&gt;&lt;span style=&quot;background-color: transparent; color: light-dark(rgb(0, 0, 0), rgb(255, 255, 255));&quot;&gt;79:08:3c:ad:1f:b3&lt;/span&gt;&lt;/div&gt;" style="whiteSpace=wrap;html=1;" parent="1" vertex="1">
          <mxGeometry x="238.49" y="1021" width="132.51" height="40" as="geometry" />
        </mxCell>
        <mxCell id="k9nC3tuPw0mamGYCM7r8-27" value="&lt;div&gt;IP: 192.168.20.4/24&lt;/div&gt;&lt;div&gt;&lt;span style=&quot;background-color: transparent; color: light-dark(rgb(0, 0, 0), rgb(255, 255, 255));&quot;&gt;MAC:&amp;nbsp;0d:a2:55:de:11:3f&lt;/span&gt;&lt;/div&gt;" style="whiteSpace=wrap;html=1;" parent="1" vertex="1">
          <mxGeometry x="420.9200000000001" y="1001.5" width="152.75" height="39" as="geometry" />
        </mxCell>
        <mxCell id="k9nC3tuPw0mamGYCM7r8-28" value="&lt;font style=&quot;font-size: 28px;&quot;&gt;&lt;b style=&quot;&quot;&gt;VLAN 100&lt;/b&gt;&lt;/font&gt;" style="text;html=1;align=center;verticalAlign=middle;resizable=0;points=[];autosize=1;strokeColor=none;fillColor=none;" parent="1" vertex="1">
          <mxGeometry x="1077" y="502.5" width="150" height="50" as="geometry" />
        </mxCell>
        <mxCell id="k9nC3tuPw0mamGYCM7r8-29" value="&lt;span style=&quot;font-size: 30px;&quot;&gt;&lt;b&gt;Hyper-V&lt;/b&gt;&lt;/span&gt;" style="text;html=1;align=center;verticalAlign=middle;resizable=0;points=[];autosize=1;strokeColor=none;fillColor=none;" parent="1" vertex="1">
          <mxGeometry x="342" y="555" width="140" height="50" as="geometry" />
        </mxCell>
        <mxCell id="k9nC3tuPw0mamGYCM7r8-30" value="Contenedor 1" style="whiteSpace=wrap;html=1;" parent="1" vertex="1">
          <mxGeometry x="312.24" y="645" width="170" height="20" as="geometry" />
        </mxCell>
        <mxCell id="k9nC3tuPw0mamGYCM7r8-31" value="Contenedor 2" style="whiteSpace=wrap;html=1;" parent="1" vertex="1">
          <mxGeometry x="172" y="968.5" width="170" height="20" as="geometry" />
        </mxCell>
        <mxCell id="k9nC3tuPw0mamGYCM7r8-32" value="Contenedor 3" style="whiteSpace=wrap;html=1;" parent="1" vertex="1">
          <mxGeometry x="507" y="1050" width="170" height="20" as="geometry" />
        </mxCell>
        <mxCell id="k9nC3tuPw0mamGYCM7r8-46" value="" style="sketch=0;aspect=fixed;pointerEvents=1;shadow=0;dashed=0;html=1;strokeColor=none;labelPosition=center;verticalLabelPosition=bottom;verticalAlign=top;align=center;fillColor=#161515;shape=mxgraph.azure.virtual_machine_feature;fontColor=#ffffff;" parent="1" vertex="1">
          <mxGeometry x="747" y="1040.5" width="166.67" height="150" as="geometry" />
        </mxCell>
        <mxCell id="k9nC3tuPw0mamGYCM7r8-47" value="&lt;div&gt;Contenedor&lt;/div&gt;&lt;div&gt;Servidor de Respaldo&lt;/div&gt;&lt;div&gt;PUERTO:&amp;nbsp;&lt;span style=&quot;background-color: transparent; color: light-dark(rgb(0, 0, 0), rgb(255, 255, 255));&quot;&gt;587-nsync&lt;/span&gt;&lt;/div&gt;" style="rounded=1;whiteSpace=wrap;html=1;fillColor=#fff2cc;strokeColor=#d6b656;" parent="1" vertex="1">
          <mxGeometry x="927" y="1050" width="170" height="90" as="geometry" />
        </mxCell>
        <mxCell id="k9nC3tuPw0mamGYCM7r8-49" value="Adaptador de red virtual" style="whiteSpace=wrap;html=1;" parent="1" vertex="1">
          <mxGeometry x="847" y="1011" width="170" height="20" as="geometry" />
        </mxCell>
        <mxCell id="k9nC3tuPw0mamGYCM7r8-54" style="edgeStyle=none;shape=connector;rounded=0;orthogonalLoop=1;jettySize=auto;html=1;strokeColor=default;align=center;verticalAlign=middle;fontFamily=Helvetica;fontSize=11;fontColor=default;labelBackgroundColor=default;startFill=0;endArrow=none;" parent="1" source="k9nC3tuPw0mamGYCM7r8-50" target="k9nC3tuPw0mamGYCM7r8-46" edge="1">
          <mxGeometry relative="1" as="geometry" />
        </mxCell>
        <mxCell id="k9nC3tuPw0mamGYCM7r8-50" value="" style="verticalAlign=top;verticalLabelPosition=bottom;labelPosition=center;align=center;html=1;outlineConnect=0;gradientDirection=north;strokeWidth=2;shape=mxgraph.networks.firewall;fillColor=#f5f5f5;fontColor=#333333;strokeColor=#666666;" parent="1" vertex="1">
          <mxGeometry x="727" y="868.5" width="60" height="55" as="geometry" />
        </mxCell>
        <mxCell id="k9nC3tuPw0mamGYCM7r8-51" value="&lt;div&gt;IP: 192.168.20.7/24&lt;/div&gt;&lt;div&gt;&lt;span style=&quot;background-color: transparent; color: light-dark(rgb(0, 0, 0), rgb(255, 255, 255));&quot;&gt;MAC:&amp;nbsp;&lt;/span&gt;&lt;span style=&quot;background-color: transparent; color: light-dark(rgb(0, 0, 0), rgb(255, 255, 255));&quot;&gt;xx:xx:xx:xx:xx&lt;/span&gt;&lt;/div&gt;" style="whiteSpace=wrap;html=1;" parent="1" vertex="1">
          <mxGeometry x="691.25" y="942" width="152.75" height="39" as="geometry" />
        </mxCell>
        <mxCell id="k9nC3tuPw0mamGYCM7r8-52" value="Contenedor 4" style="whiteSpace=wrap;html=1;" parent="1" vertex="1">
          <mxGeometry x="847" y="981" width="170" height="20" as="geometry" />
        </mxCell>
        <mxCell id="k9nC3tuPw0mamGYCM7r8-59" value="" style="verticalAlign=top;verticalLabelPosition=bottom;labelPosition=center;align=center;html=1;outlineConnect=0;gradientDirection=north;strokeWidth=2;shape=mxgraph.networks.firewall;fillColor=#f5f5f5;fontColor=#333333;strokeColor=#666666;" parent="1" vertex="1">
          <mxGeometry x="773" y="435" width="60" height="55" as="geometry" />
        </mxCell>
        <mxCell id="k9nC3tuPw0mamGYCM7r8-60" value="&lt;div&gt;Firewall WAF del servidor: Coraza o SafeLine&lt;/div&gt;" style="whiteSpace=wrap;html=1;" parent="1" vertex="1">
          <mxGeometry x="820" y="360" width="170" height="60" as="geometry" />
        </mxCell>
        <mxCell id="k9nC3tuPw0mamGYCM7r8-61" value="Mapeo de puertos. Comunicación entre puertos de los contenedores y los del Host&lt;div&gt;(puerto contenedor:puerto host)&lt;br&gt;&lt;div&gt;8080:80&lt;/div&gt;&lt;/div&gt;&lt;div&gt;33060:3306&lt;/div&gt;&lt;div&gt;5870:587&lt;/div&gt;&lt;div&gt;1430:143&lt;/div&gt;&lt;div&gt;1450:145&lt;/div&gt;" style="whiteSpace=wrap;html=1;" parent="1" vertex="1">
          <mxGeometry x="557" y="550" width="170" height="140" as="geometry" />
        </mxCell>
        <mxCell id="k9nC3tuPw0mamGYCM7r8-62" value="Puerto del contenedor: 8080" style="rounded=1;whiteSpace=wrap;html=1;fillColor=#f8cecc;strokeColor=#b85450;" parent="1" vertex="1">
          <mxGeometry x="123.75" y="840" width="170" height="69" as="geometry" />
        </mxCell>
        <mxCell id="k9nC3tuPw0mamGYCM7r8-65" value="&lt;div style=&quot;font-size: 12px;&quot;&gt;IP: 162.168.20.3/24&lt;/div&gt;&lt;div style=&quot;font-size: 12px;&quot;&gt;&lt;span style=&quot;background-color: transparent; color: light-dark(rgb(0, 0, 0), rgb(255, 255, 255));&quot;&gt;MAC:&amp;nbsp;31:e2:44:72:5a:6d&lt;/span&gt;&lt;/div&gt;&lt;div style=&quot;font-size: 12px;&quot;&gt;&lt;span style=&quot;background-color: transparent; color: light-dark(rgb(0, 0, 0), rgb(255, 255, 255));&quot;&gt;Gateway:&amp;nbsp;&lt;/span&gt;&lt;span style=&quot;background-color: rgb(236, 236, 236); text-wrap-mode: wrap; color: light-dark(rgb(0, 0, 0), rgb(255, 255, 255));&quot;&gt;192.168.20.1/24&lt;/span&gt;&lt;/div&gt;" style="edgeLabel;html=1;align=center;verticalAlign=middle;resizable=0;points=[];" parent="1" vertex="1" connectable="0">
          <mxGeometry x="879.9985714285715" y="610.9999999999998" as="geometry" />
        </mxCell>
        <mxCell id="k9nC3tuPw0mamGYCM7r8-67" value="&lt;div&gt;Servidor DHCP&lt;/div&gt;&lt;div&gt;&lt;span style=&quot;background-color: transparent; color: light-dark(rgb(0, 0, 0), rgb(255, 255, 255));&quot;&gt;-Rango de direcciones para interfase DMZ: 192.168.20.2/24 - 192.168.20.150/24&lt;/span&gt;&lt;/div&gt;&lt;div&gt;&lt;br&gt;&lt;/div&gt;&lt;div&gt;IP ESTÁTICAS:&lt;/div&gt;&lt;div&gt;&lt;div&gt;Son las asignadas a los dispositivos por DHCP&lt;/div&gt;&lt;div&gt;(se encarga de gestionar las ip estáticas): en las interfaz DMZ.&lt;/div&gt;&lt;/div&gt;" style="whiteSpace=wrap;html=1;" parent="1" vertex="1">
          <mxGeometry x="660" y="-120.4" width="430" height="120" as="geometry" />
        </mxCell>
        <mxCell id="k9nC3tuPw0mamGYCM7r8-68" value="&lt;span style=&quot;text-wrap-mode: nowrap;&quot;&gt;Router&amp;nbsp;&lt;/span&gt;&lt;span style=&quot;background-color: transparent; color: light-dark(rgb(0, 0, 0), rgb(255, 255, 255));&quot;&gt;NetGate&lt;/span&gt;&lt;div&gt;SG-2100&lt;span style=&quot;background-color: transparent; color: light-dark(rgb(0, 0, 0), rgb(255, 255, 255)); text-wrap-mode: nowrap;&quot;&gt;&amp;nbsp;con PFSense.&lt;/span&gt;&lt;/div&gt;&lt;div&gt;&lt;span style=&quot;background-color: transparent; color: light-dark(rgb(0, 0, 0), rgb(255, 255, 255)); text-wrap-mode: nowrap;&quot;&gt;OpenVPN Server integrado&lt;/span&gt;&lt;/div&gt;" style="whiteSpace=wrap;html=1;" parent="1" vertex="1">
          <mxGeometry x="465.01" y="-13.6" width="179.51" height="43.6" as="geometry" />
        </mxCell>
        <mxCell id="k9nC3tuPw0mamGYCM7r8-69" value="Firewall PFSense" style="text;html=1;align=center;verticalAlign=middle;resizable=0;points=[];autosize=1;strokeColor=none;fillColor=none;" parent="1" vertex="1">
          <mxGeometry x="655" y="24.8" width="120" height="30" as="geometry" />
        </mxCell>
        <mxCell id="k9nC3tuPw0mamGYCM7r8-70" value="Eth 01" style="text;html=1;align=center;verticalAlign=middle;resizable=0;points=[];autosize=1;strokeColor=none;fillColor=none;" parent="1" vertex="1">
          <mxGeometry x="545.01" y="34.8" width="60" height="30" as="geometry" />
        </mxCell>
        <mxCell id="k9nC3tuPw0mamGYCM7r8-72" value="Wan 01" style="text;html=1;align=center;verticalAlign=middle;resizable=0;points=[];autosize=1;strokeColor=none;fillColor=none;" parent="1" vertex="1">
          <mxGeometry x="421.5" y="39.4" width="60" height="30" as="geometry" />
        </mxCell>
        <mxCell id="k9nC3tuPw0mamGYCM7r8-76" value="Eth 02" style="text;html=1;align=center;verticalAlign=middle;resizable=0;points=[];autosize=1;strokeColor=none;fillColor=none;" parent="1" vertex="1">
          <mxGeometry x="405.01" y="84.8" width="60" height="30" as="geometry" />
        </mxCell>
        <mxCell id="k9nC3tuPw0mamGYCM7r8-77" value="" style="shape=mxgraph.networks2.icon;aspect=fixed;fillColor=#EDEDED;strokeColor=#000000;gradientColor=#5B6163;network2IconShadow=1;network2bgFillColor=none;network2Icon=mxgraph.networks2.firewall;network2IconXOffset=0.0001;network2IconYOffset=0.0001;network2IconW=1;network2IconH=0.608;" parent="1" vertex="1">
          <mxGeometry x="389" y="139.6" width="50" height="30.4" as="geometry" />
        </mxCell>
        <mxCell id="k9nC3tuPw0mamGYCM7r8-81" value="Eth 03" style="text;html=1;align=center;verticalAlign=middle;resizable=0;points=[];autosize=1;strokeColor=none;fillColor=none;fontFamily=Helvetica;fontSize=11;fontColor=default;labelBackgroundColor=default;" parent="1" vertex="1">
          <mxGeometry x="545.01" y="85.2" width="60" height="30" as="geometry" />
        </mxCell>
        <mxCell id="TX3onEPO9yVp4zeH3xRl-2" value="" style="edgeStyle=none;shape=connector;rounded=0;orthogonalLoop=1;jettySize=auto;html=1;strokeColor=default;align=center;verticalAlign=middle;fontFamily=Helvetica;fontSize=11;fontColor=default;labelBackgroundColor=default;startFill=0;endArrow=none;" edge="1" parent="1" source="TX3onEPO9yVp4zeH3xRl-4" target="TX3onEPO9yVp4zeH3xRl-1">
          <mxGeometry relative="1" as="geometry">
            <mxPoint x="465" y="63" as="sourcePoint" />
            <mxPoint x="224" y="36" as="targetPoint" />
          </mxGeometry>
        </mxCell>
        <mxCell id="TX3onEPO9yVp4zeH3xRl-1" value="" style="shape=mxgraph.networks2.icon;aspect=fixed;fillColor=#EDEDED;strokeColor=#000000;gradientColor=#5B6163;network2IconShadow=1;network2bgFillColor=none;network2Icon=mxgraph.networks2.firewall;network2IconXOffset=0.0001;network2IconYOffset=0.0001;network2IconW=1;network2IconH=0.608;" vertex="1" parent="1">
          <mxGeometry x="300" y="34.39999999999999" width="50" height="30.4" as="geometry" />
        </mxCell>
        <mxCell id="TX3onEPO9yVp4zeH3xRl-3" value="Firewall PFSense" style="text;html=1;align=center;verticalAlign=middle;resizable=0;points=[];autosize=1;strokeColor=none;fillColor=none;" vertex="1" parent="1">
          <mxGeometry x="256.51" y="-5.200000000000003" width="120" height="30" as="geometry" />
        </mxCell>
        <mxCell id="TX3onEPO9yVp4zeH3xRl-8" value="Red del cliente" style="rounded=1;whiteSpace=wrap;html=1;" vertex="1" parent="1">
          <mxGeometry x="-320" y="7.199999999999996" width="110" height="27.6" as="geometry" />
        </mxCell>
        <mxCell id="TX3onEPO9yVp4zeH3xRl-9" value="Wan 01" style="text;html=1;align=center;verticalAlign=middle;resizable=0;points=[];autosize=1;strokeColor=none;fillColor=none;" vertex="1" parent="1">
          <mxGeometry x="-232.99999999999997" y="30.000000000000004" width="60" height="30" as="geometry" />
        </mxCell>
        <mxCell id="TX3onEPO9yVp4zeH3xRl-11" value="Eth 01" style="text;html=1;align=center;verticalAlign=middle;resizable=0;points=[];autosize=1;strokeColor=none;fillColor=none;" vertex="1" parent="1">
          <mxGeometry x="-260" y="109.74" width="60" height="30" as="geometry" />
        </mxCell>
        <mxCell id="TX3onEPO9yVp4zeH3xRl-12" value="" style="edgeStyle=none;shape=connector;rounded=0;orthogonalLoop=1;jettySize=auto;html=1;strokeColor=default;align=center;verticalAlign=middle;fontFamily=Helvetica;fontSize=11;fontColor=default;labelBackgroundColor=default;startFill=0;endArrow=none;" edge="1" parent="1" source="Zybm6XqCpWypI8we6p3C-5" target="TX3onEPO9yVp4zeH3xRl-4">
          <mxGeometry relative="1" as="geometry">
            <mxPoint x="465" y="64" as="sourcePoint" />
            <mxPoint x="350" y="52" as="targetPoint" />
          </mxGeometry>
        </mxCell>
        <mxCell id="TX3onEPO9yVp4zeH3xRl-4" value="&lt;span style=&quot;text-wrap-mode: nowrap;&quot;&gt;OpenVPN&lt;/span&gt;&lt;div&gt;&lt;span style=&quot;text-wrap-mode: nowrap;&quot;&gt;Server&lt;/span&gt;&lt;/div&gt;&lt;div&gt;&lt;span style=&quot;text-wrap-mode: nowrap;&quot;&gt;Puerto: 443&lt;/span&gt;&lt;/div&gt;" style="whiteSpace=wrap;html=1;" vertex="1" parent="1">
          <mxGeometry x="372.21" y="34.400000000000006" width="66.79" height="50.26" as="geometry" />
        </mxCell>
        <mxCell id="TX3onEPO9yVp4zeH3xRl-13" value="&lt;div style=&quot;font-size: 12px; background-color: rgb(236, 236, 236);&quot;&gt;DNS1: 8.8.8.8&lt;/div&gt;&lt;div style=&quot;font-size: 12px; background-color: rgb(236, 236, 236);&quot;&gt;DNS2: 4.4.4.4&lt;/div&gt;" style="whiteSpace=wrap;html=1;fontFamily=Helvetica;fontSize=11;fontColor=default;labelBackgroundColor=default;" vertex="1" parent="1">
          <mxGeometry x="600" y="170" width="120" height="60" as="geometry" />
        </mxCell>
        <mxCell id="TX3onEPO9yVp4zeH3xRl-14" style="edgeStyle=orthogonalEdgeStyle;shape=connector;rounded=0;orthogonalLoop=1;jettySize=auto;html=1;strokeColor=default;align=center;verticalAlign=middle;fontFamily=Helvetica;fontSize=11;fontColor=default;labelBackgroundColor=default;startFill=0;endArrow=none;" edge="1" parent="1" source="1NkxxKSasbxXzvWRkInH-12" target="k9nC3tuPw0mamGYCM7r8-4">
          <mxGeometry relative="1" as="geometry" />
        </mxCell>
      </root>
    </mxGraphModel>
  </diagram>
</mxfile>
